<svg width="512" height="362" xmlns="http://www.w3.org/2000/svg" xml:space="preserve" version="1.1">

 <g>
  <title>Layer 1</title>
  <g stroke="null" id="svg_1">
   <path stroke="null" id="svg_2" fill="#FFE477" d="m210.92499,105.07367l28.62047,0l0,-34.77895l-28.62047,0c1.23659,5.60897 1.89319,11.42488 1.89319,17.38947s-0.6566,11.78049 -1.89319,17.38947z"/>
   <path stroke="null" id="svg_3" fill="#FFE477" d="m43.54546,87.6842c0,-5.96459 0.6566,-11.7805 1.89318,-17.38947l-28.62045,0l0,34.77895l28.62045,0c-1.23658,-5.60898 -1.89318,-11.42488 -1.89318,-17.38947z"/>
   <path stroke="null" id="svg_4" fill="#FFE477" d="m199.26744,42.90108l20.26016,-19.77184l-25.19846,-24.59219l-20.26018,19.7727c10.07085,6.36629 18.67435,14.7628 25.19847,24.59133z"/>
   <path stroke="null" id="svg_5" fill="#FFE477" d="m57.09618,132.4673l-20.26016,19.77184l25.19757,24.59219l20.26017,-19.77269c-10.06995,-6.36629 -18.67345,-14.76279 -25.19758,-24.59134z"/>
   <path stroke="null" id="svg_6" fill="#FFE477" d="m146,6.93182l0,-27.93184l-35.63636,0l0,27.93184c5.74726,-1.20683 11.70744,-1.84763 17.81818,-1.84763s12.07092,0.6408 17.81818,1.84763z"/>
   <path stroke="null" id="svg_7" fill="#FFE477" d="m110.36364,168.43657l0,27.93184l35.63636,0l0,-27.93184c-5.74725,1.20683 -11.70744,1.84766 -17.81818,1.84766s-12.07092,-0.64082 -17.81818,-1.84766z"/>
   <path stroke="null" id="svg_8" fill="#FFE477" d="m174.06897,157.05864l20.26018,19.77269l25.19757,-24.59219l-20.26015,-19.77184c-6.52325,9.82855 -15.12675,18.22505 -25.1976,24.59134z"/>
   <path stroke="null" id="svg_9" fill="#FFE477" d="m82.29465,18.30975l-20.26016,-19.7727l-25.19758,24.59219l20.26016,19.77184c6.52324,-9.82853 15.12674,-18.22504 25.19758,-24.59133z"/>
   <path stroke="null" id="svg_10" fill="#FFD422" d="m128.18182,170.28423c6.11073,0 12.07092,-0.64082 17.81818,-1.84766c10.14658,-2.1302 19.62317,-6.0385 28.06897,-11.37708c10.07085,-6.36714 18.67435,-14.76279 25.19847,-24.59219c5.47018,-8.24174 9.47482,-17.49033 11.65755,-27.39363c1.23659,-5.60898 1.89319,-11.42488 1.89319,-17.38947s-0.6566,-11.7805 -1.89319,-17.38947c-2.18272,-9.90244 -6.18736,-19.15103 -11.65755,-27.39364c-6.52412,-9.82853 -15.12672,-18.22504 -25.19847,-24.5922c-8.44492,-5.33857 -17.92239,-9.24685 -28.06897,-11.37706c-5.74725,-1.20683 -11.70744,-1.84763 -17.81818,-1.84763l0,165.20004z"/>
   <path stroke="null" id="svg_11" fill="#FFDE55" d="m45.43864,105.07367c2.18273,9.90245 6.18736,19.15103 11.65754,27.39363c6.52413,9.82855 15.12675,18.22505 25.19847,24.59219c8.44493,5.33858 17.92242,9.24687 28.06898,11.37708c5.74726,1.20683 11.70744,1.84766 17.81818,1.84766l0,-165.20004c-6.11075,0 -12.07092,0.6408 -17.81818,1.84763c-10.14656,2.13021 -19.62317,6.0385 -28.06898,11.37706c-10.07084,6.36716 -18.67435,14.76367 -25.19847,24.5922c-5.47018,8.24261 -9.47481,17.4912 -11.65754,27.39364c-1.23658,5.60897 -1.89318,11.42488 -1.89318,17.38947s0.6566,11.78049 1.89318,17.38947z"/>
   <rect stroke="null" id="svg_12" fill="#6A563D" height="34.77895" width="35.63636" y="322.44211" x="293.57464"/>
   <polygon stroke="null" id="svg_13" fill="#4E901E" points="311.392816471227,322.442138671875 429.313557791902,322.442138671875 311.392816471227,92.27415466308594 "/>
   <polygon stroke="null" id="svg_14" fill="#5EAC24" points="311.392816471227,92.27415466308594 193.4711967178373,322.442138671875 311.392816471227,322.442138671875 "/>
   <rect stroke="null" x="-1" id="svg_15" fill="#6DC82A" height="34.77895" width="441" y="357.22106"/>
  </g>
 </g>
</svg>