<svg width="996" height="984" xmlns="http://www.w3.org/2000/svg" data-name="Layer 2">

 <title/>
 <g>
  <title>Layer 1</title>
  <g stroke="null" id="svg_35">
   <rect stroke="null" id="svg_1" fill="#4d4c78" y="897.80896" x="0" width="995.50519" ry="60" rx="60" height="86.30068" class="cls-1"/>
   <path stroke="null" id="svg_2" fill="#323150" d="m964.25232,897.80927l-919.71716,0c-0.05202,0.93457 -0.05202,1.86926 -0.05202,2.80408l0,0a31.25278,43.14315 0 0 0 31.2528,43.21515l919.66513,0c0.052,-1.00665 0.10406,-1.94135 0.10406,-2.87622l0,0a31.25278,43.14315 0 0 0 -31.25281,-43.14301z" class="cls-2"/>
   <rect stroke="null" id="svg_3" fill="#67baeb" y="-494.53414" x="776.04019" width="273.3" transform="matrix(0.512966 -0.124862 0.0904498 0.708128 309.395 519.735)" height="1158.16" class="cls-3"/>
   <rect stroke="null" id="svg_4" fill="#67baeb" y="0" x="87.35152" width="153.97203" height="900.64922" class="cls-3"/>
   <rect stroke="null" id="svg_5" fill="#f44533" y="0" x="493.68974" width="153.97203" height="900.64922" class="cls-4"/>
   <polygon stroke="null" id="svg_6" fill="#de3226" points="493.6898647546768,900.6133413314819 647.66181910038,900.6133413314819 647.66181910038,0.00005435943603515625 621.6177517175674,0.00005435943603515625 621.6177517175674,859.7711782455444 493.6898647546768,859.7711782455444 493.6898647546768,900.6133413314819 " class="cls-5"/>
   <rect stroke="null" id="svg_7" fill="#f4c23f" y="61.91042" x="241.32354" width="126.3654" height="838.71722" class="cls-6"/>
   <path stroke="null" id="svg_8" fill="#f4a93f" d="m334.66516,61.91047l0,678.92956c0,71.1142 -41.77451,128.85394 -93.34164,128.85394l0,0l0,30.91937l126.36539,0l0,-838.70287l-33.02374,0z" class="cls-7"/>
   <rect stroke="null" id="svg_9" fill="#c8c2e9" y="117.27746" x="367.32433" width="126.3654" height="783.37894" class="cls-8"/>
   <path stroke="null" id="svg_10" fill="#b9b1e0" d="m469.46884,117.27742l0,614.71788c0,77.87366 -45.73322,141.00653 -102.14453,141.00653l0,0l0,27.61151l126.36554,0l0,-783.33592l-24.22101,0z" class="cls-9"/>
   <rect stroke="null" id="svg_11" fill="#4d4c78" y="142.01287" x="87.35152" width="153.97203" height="62.62228" class="cls-1"/>
   <rect stroke="null" id="svg_12" fill="#4d4c78" y="696.04283" x="87.35152" width="153.97203" height="62.62228" class="cls-1"/>
   <rect stroke="null" id="svg_13" fill="#f4a93f" y="186.73794" x="285.80667" width="31.6174" height="609.14533" class="cls-7"/>
   <path stroke="null" id="svg_14" fill="#4d4c78" d="m459.05127,243.18358l-57.0885,0a10.41759,14.38105 0 0 1 0,-28.7621l57.0885,0a10.41759,14.38105 0 0 1 0,28.7621z" class="cls-1"/>
   <path stroke="null" id="svg_15" fill="#4d4c78" d="m459.05127,316.02356l-57.0885,0a10.41759,14.38105 0 0 1 0,-28.76199l57.0885,0a10.41759,14.38105 0 0 1 0,28.76199z" class="cls-1"/>
   <path stroke="null" id="svg_16" fill="#4d4c78" d="m459.05127,388.79181l-57.0885,0a10.41759,14.38105 0 0 1 0,-28.76221l57.0885,0a10.41759,14.38105 0 0 1 0,28.76221z" class="cls-1"/>
   <path stroke="null" id="svg_17" fill="#4d4c78" d="m449.25873,825.40045l-37.50333,0a10.41759,14.38105 0 0 1 0,-28.76221l37.50333,0a10.41759,14.38105 0 1 1 0,28.76221z" class="cls-1"/>
   <path stroke="null" id="svg_18" fill="#b11a31" d="m542.18372,762.91486a10.46968,14.45296 0 0 1 -10.41748,-14.38098l0,-596.38237a10.41759,14.38105 0 0 1 20.83508,0l0,596.38237a10.41759,14.38105 0 0 1 -10.4176,14.38098z" class="cls-10"/>
   <path stroke="null" id="svg_19" fill="#b11a31" d="m599.11572,762.91486a10.41759,14.38105 0 0 1 -10.41766,-14.38098l0,-596.38237a10.41759,14.38105 0 0 1 20.83539,0l0,596.38237a10.46968,14.45296 0 0 1 -10.41772,14.38098z" class="cls-10"/>
   <polygon stroke="null" id="svg_20" fill="#4d4c78" points="894.1942287683487,748.9650869369507 894.1942287683487,748.9650869369507 754.0252834558487,783.2639760971069 757.67158472538,811.5946035385132 897.8403469324112,777.2958364486694 894.1942287683487,748.9650869369507 " class="cls-1"/>
   <rect stroke="null" id="svg_21" fill="#4d4c78" y="-394.53416" x="773.64018" width="273.3" transform="matrix(0.512966 -0.124862 0.0904498 0.708128 311.827 528.916)" height="40" class="cls-1"/>
   <polygon stroke="null" id="svg_22" fill="#4d4c78" points="840.0225368738174,326.3779287338257 840.0225368738174,326.3779287338257 836.3764797449112,298.1192922592163 836.3764797449112,298.1192922592163 696.20771753788,332.3460988998413 696.20771753788,332.3460988998413 699.8540188074112,360.67672634124756 699.8540188074112,360.67672634124756 840.0225368738174,326.3779287338257 " class="cls-1"/>
   <polygon stroke="null" id="svg_23" fill="#4d4c78" points="874.7653957605362,597.1729116439819 871.119094491005,568.8425283432007 730.8983303308487,603.1412954330444 734.5444484949112,631.4720449447632 734.5444484949112,631.4720449447632 874.7653957605362,597.1729116439819 " class="cls-1"/>
   <path stroke="null" id="svg_24" opacity="0.1" fill="#323150" d="m196.84047,703.66467l0,-703.66462l44.48305,0l0,900.61329l-153.97199,0l0,-45.80365l0,0c60.47413,0 109.48895,-67.6629 109.48895,-151.14502z" class="cls-11"/>
   <path stroke="null" id="svg_25" opacity="0.1" fill="#323150" d="m802.9881,37.60645l-35.6803,8.77244l82.66351,644.84633c9.79279,76.21967 -27.03375,148.98767 -82.29889,162.4339l-4.47961,1.15057l4.73987,37.10303l140.22101,-34.22681l-105.16559,-820.07946z" class="cls-11"/>
   <rect stroke="null" id="svg_26" fill="#83d0fb" y="273.23995" x="87.35152" width="33.753" ry="32.4" rx="32.4" height="377.32999" class="cls-12"/>
   <g stroke="null" id="svg_27" opacity="0.2" class="cls-13">
    <rect stroke="null" id="svg_28" fill="#ffffff" y="-259.13416" x="776.04018" width="72.2" transform="matrix(0.512966 -0.124862 0.0904498 0.708128 311.128 520.042)" ry="36.1" rx="36.1" height="584.09" class="cls-14"/>
    <path stroke="null" id="svg_29" fill="#231f20" d="m754.12946,648.72919a19.06419,26.31732 0 0 1 -18.75165,-21.78729l-46.46234,-362.47437a19.06419,26.31732 0 0 1 15.41809,-30.48787a19.11628,26.38923 0 0 1 22.13739,21.35594l46.4624,362.47421a19.06419,26.31732 0 0 1 -15.41803,30.48792l0,0a18.5954,25.67017 0 0 1 -3.38586,0.43146zm-46.46234,-414.39008a17.39738,24.01636 0 0 0 -3.22949,0.43153a18.43914,25.45446 0 0 0 -14.94928,29.62492l46.46259,362.40259a18.54331,25.59827 0 0 0 21.46027,20.70856a18.43914,25.45446 0 0 0 14.9491,-29.55316l-46.46222,-362.47418a18.54331,25.59827 0 0 0 -18.23096,-21.14026z" class="cls-15"/>
   </g>
   <rect stroke="null" id="svg_30" fill="#83d0fb" y="21.64348" x="87.35152" width="33.753" ry="32.4" rx="32.4" height="96.31708" class="cls-12"/>
   <rect stroke="null" id="svg_31" fill="#fad564" y="76.36338" x="241.32354" width="25.31475" ry="24.3" rx="24.3" height="421.7171" class="cls-16"/>
   <rect stroke="null" id="svg_32" fill="#dfdafd" y="436.39297" x="367.32433" width="24.2209" ry="23.2" rx="23.2" height="238.51691" class="cls-17"/>
   <rect stroke="null" id="svg_33" fill="#dfdafd" y="117.27746" x="367.32433" width="63.1827" ry="19.2" rx="19.2" height="41.07947" class="cls-17"/>
   <rect stroke="null" id="svg_34" fill="#f46253" y="117.27746" x="493.68974" width="20.26222" ry="19.4" rx="19.4" height="542.99969" class="cls-18"/>
  </g>
 </g>
</svg>