<svg width="512" height="362" xmlns="http://www.w3.org/2000/svg" xml:space="preserve" version="1.1">

 <g>
  <title>Layer 1</title>
  <path id="svg_1" fill="#92C7D3" d="m426.224,363.84c-1.12,0 -42.64801,0 -42.64801,0c0.74402,-8.16 1.24002,-9.96799 1.25601,-14.74399c0.12799,-42.672 -28.36002,-80.59201 -70.03201,-89.77603c-23.75198,-5.23198 -46.43198,-1.67999 -65.19199,8.44c-22.888,-34.06398 -60.81599,-57.19998 -104.272,-59.85597c-5.592,-0.76801 -11.256,-1.304 -17.056,-1.304c-70.848,0 -128.28,59.23199 -128.28,132.28799c0,38.07199 15.688,72.28799 40.648,96.42401c22.072,24.48798 52.72,40.30399 89.00801,42.93597c0,0 295.448,1.46402 296.56799,1.46402c29.71201,0 53.79199,-25.936 53.79199,-57.936c0,-32 -24.07999,-57.936 -53.79199,-57.936z"/>
  <g id="svg_2">
   <path id="svg_3" fill="#FCE674" d="m387,35.976c10.28,17.208 16.30399,37.264 16.30399,58.768c0,63.44 -51.43198,114.87199 -114.87198,114.87199c-0.14401,0 -0.28,-0.024 -0.42401,-0.024c20.056,33.56801 56.63202,56.11198 98.57602,56.11198c63.43997,0 114.87198,-51.43198 114.87198,-114.87198c0,-63.304 -51.20801,-114.624 -114.45599,-114.856z"/>
   <polygon id="svg_4" fill="#FCE674" points="100.552001953125,183.27999877929688 115.55999755859375,213.6959991455078 149.12799835205078,218.5760040283203 124.83999633789062,242.2480010986328 130.57599639892578,275.67999267578125 100.552001953125,259.89599609375 70.52799987792969,275.67999267578125 76.26399993896484,242.2480010986328 51.97599983215332,218.5760040283203 85.54399871826172,213.6959991455078 "/>
   <polygon id="svg_5" fill="#FCE674" points="216.41600036621094,34.30400085449219 231.4320068359375,64.72000122070312 265,69.5999984741211 240.71200561523438,93.27999877929688 246.44000244140625,126.7040023803711 216.41600036621094,110.91999816894531 186.39999389648438,126.7040023803711 192.1280059814453,93.27999877929688 167.83999633789062,69.5999984741211 201.4080047607422,64.72000122070312 "/>
  </g>
 </g>
</svg>