<svg width="512" height="362" xmlns="http://www.w3.org/2000/svg" xml:space="preserve" version="1.1">

 <g>
  <title>Layer 1</title>
  <g stroke="null" id="svg_1">
   <g stroke="null" id="svg_2">
    <path stroke="null" id="svg_3" fill="#F29C1F" d="m239.407,147.12584c-4.873,0 -8.828,-3.93314 -8.828,-8.77921l0,-52.6733c0,-4.84608 3.955,-8.77922 8.828,-8.77922c4.873,0 8.828,3.93314 8.828,8.77922l0,52.6733c-0.00101,4.84607 -3.95599,8.77921 -8.828,8.77921"/>
    <path stroke="null" id="svg_4" fill="#F29C1F" d="m124.648,261.2507l-52.966,0c-4.873,0 -8.828,-3.93314 -8.828,-8.77922c0,-4.84605 3.955,-8.77924 8.828,-8.77924l52.966,0c4.87299,0 8.828,3.93318 8.828,8.77924c0,4.84605 -3.955,8.77922 -8.828,8.77922"/>
    <path stroke="null" id="svg_5" fill="#F29C1F" d="m407.13101,261.2507l-52.966,0c-4.87299,0 -8.828,-3.93314 -8.828,-8.77922c0,-4.84605 3.95502,-8.77924 8.828,-8.77924l52.966,0c4.87299,0 8.828,3.93318 8.828,8.77924c-0.00101,4.84605 -3.95502,8.77922 -8.828,8.77922"/>
    <path stroke="null" id="svg_6" fill="#F29C1F" d="m451.26901,261.2507l-8.828,0c-4.87299,0 -8.828,-3.93314 -8.828,-8.77922c0,-4.84605 3.95502,-8.77924 8.828,-8.77924l8.828,0c4.87299,0 8.828,3.93318 8.828,8.77924c-0.00101,4.84605 -3.95502,8.77922 -8.828,8.77922"/>
    <path stroke="null" id="svg_7" fill="#F29C1F" d="m36.372,261.2507l-8.828,0c-4.873,0 -8.828,-3.93314 -8.828,-8.77922c0,-4.84605 3.955,-8.77924 8.828,-8.77924l8.828,0c4.873,0 8.828,3.93318 8.828,8.77924c0,4.84605 -3.955,8.77922 -8.828,8.77922"/>
    <path stroke="null" id="svg_8" fill="#F29C1F" d="m320.55301,180.55211c-2.26001,0 -4.51999,-0.8602 -6.241,-2.57172c-3.452,-3.43291 -3.452,-8.98108 0,-12.41301l24.97299,-24.83501c3.44299,-3.42397 9.03101,-3.42397 12.48199,0c3.44302,3.43294 3.44302,8.98904 0,12.41302l-24.97299,24.83499c-1.72101,1.71149 -3.98102,2.57172 -6.241,2.57172"/>
    <path stroke="null" id="svg_9" fill="#F29C1F" d="m371.82001,129.56841c-2.26001,0 -4.51999,-0.8602 -6.241,-2.5717c-3.452,-3.43292 -3.452,-8.9811 0,-12.41302l17.655,-17.55743c3.452,-3.43293 9.03101,-3.43293 12.48199,0c3.452,3.43291 3.452,8.98109 0,12.41302l-17.655,17.55744c-1.72101,1.71147 -3.98102,2.5717 -6.241,2.5717"/>
    <path stroke="null" id="svg_10" fill="#F29C1F" d="m158.25999,180.55211c-2.26001,0 -4.52,-0.8602 -6.241,-2.57172l-24.97301,-24.83499c-3.443,-3.42398 -3.443,-8.98109 0,-12.41302c3.452,-3.42397 9.039,-3.42397 12.48201,0l24.97299,24.83501c3.452,3.43291 3.452,8.98109 0,12.41301c-1.72099,1.71149 -3.98099,2.57172 -6.241,2.57172"/>
    <path stroke="null" id="svg_11" fill="#F29C1F" d="m106.993,129.56841c-2.26,0 -4.52,-0.8602 -6.241,-2.5717l-17.655,-17.55844c-3.452,-3.43291 -3.452,-8.9811 0,-12.41304c3.452,-3.43291 9.031,-3.43291 12.482,0l17.655,17.55746c3.452,3.43292 3.452,8.98109 0,12.41302c-1.721,1.71248 -3.981,2.57271 -6.241,2.57271"/>
    <path stroke="null" id="svg_12" fill="#F29C1F" d="m239.407,59.33765c-4.873,0 -8.828,-3.93314 -8.828,-8.77921l0,-8.77922c0,-4.84607 3.955,-8.77921 8.828,-8.77921c4.873,0 8.828,3.93314 8.828,8.77921l0,8.77922c-0.00101,4.84707 -3.95599,8.77921 -8.828,8.77921"/>
   </g>
   <path stroke="null" id="svg_13" fill="#F0C419" d="m239.407,138.34761c-63.382,0 -114.75901,51.09309 -114.75901,114.12486c0,14.99466 3.054,29.22461 8.35101,42.32281c22.563,-5.54816 46.239,-6.1886 69.367,-1.01831c7.98,1.7821 11.59099,8.07611 19.38499,11.36877c1.395,-1.05313 7.133,-5.91708 8.554,-7.00504c35.05399,-26.81003 79.651,-39.41699 122.995,-32.22693c0.521,-4.41547 0.86499,-8.88461 0.86499,-13.44032c0.00003,-63.03375 -51.37598,-114.12585 -114.75798,-114.12585"/>
   <path stroke="null" id="svg_14" fill="#358E4C" d="m106.993,366.59631c0,0 17.514,11.50009 117.57499,-64.11172c-7.28299,-3.30066 -16.03999,-7.33026 -22.20099,-8.70862c-45.798,-10.23611 -93.758,2.23856 -130.957,30.6994c-30.033,22.97433 -52.967,40.56659 -70.41,50.89917l105.993,0l0,-8.77823z"/>
   <path stroke="null" id="svg_15" fill="#4FBA6F" d="m106.993,366.59631c0,0 18.12299,12.00928 123.31301,-68.45758c37.19899,-28.46085 85.15999,-40.93555 130.95699,-30.69943c26.633,5.95193 53.43301,19.31372 72.35101,46.48373c29.564,42.46304 59.11801,67.49097 79.47498,79.00894l-406.09599,0l0,-26.33566z"/>
   <g stroke="null" id="svg_16">
    <path stroke="null" id="svg_17" fill="#358E4C" d="m336.51001,305.14481l-17.655,0c-4.87299,0 -8.828,-3.93314 -8.828,-8.77921s3.95502,-8.77924 8.828,-8.77924l17.655,0c4.87299,0 8.828,3.93317 8.828,8.77924s-3.95502,8.77921 -8.828,8.77921"/>
    <path stroke="null" id="svg_18" fill="#358E4C" d="m292.37201,331.48145l-17.655,0c-4.87299,0 -8.828,-3.93314 -8.828,-8.77921c0,-4.84607 3.95502,-8.77921 8.828,-8.77921l17.655,0c4.87299,0 8.828,3.93314 8.828,8.77921c0,4.84604 -3.95502,8.77921 -8.828,8.77921"/>
    <path stroke="null" id="svg_19" fill="#358E4C" d="m380.64801,331.48145l-17.655,0c-4.87302,0 -8.828,-3.93314 -8.828,-8.77921c0,-4.84607 3.95499,-8.77921 8.828,-8.77921l17.655,0c4.87299,0 8.828,3.93314 8.828,8.77921c0,4.84604 -3.95502,8.77921 -8.828,8.77921"/>
    <path stroke="null" id="svg_20" fill="#358E4C" d="m424.78601,357.81711l-17.655,0c-4.87302,0 -8.828,-3.93314 -8.828,-8.77921c0,-4.8461 3.95499,-8.77924 8.828,-8.77924l17.655,0c4.87299,0 8.828,3.93314 8.828,8.77924c0,4.84705 -3.95502,8.77921 -8.828,8.77921"/>
    <path stroke="null" id="svg_21" fill="#358E4C" d="m336.51001,357.81711l-17.655,0c-4.87299,0 -8.828,-3.93314 -8.828,-8.77921c0,-4.8461 3.95502,-8.77924 8.828,-8.77924l17.655,0c4.87299,0 8.828,3.93314 8.828,8.77924c0,4.84705 -3.95502,8.77921 -8.828,8.77921"/>
    <path stroke="null" id="svg_22" fill="#358E4C" d="m248.23399,357.81711l-17.655,0c-4.873,0 -8.828,-3.93314 -8.828,-8.77921c0,-4.8461 3.955,-8.77924 8.828,-8.77924l17.655,0c4.873,0 8.82799,3.93314 8.82799,8.77924c0.00003,4.84705 -3.95499,8.77921 -8.82799,8.77921"/>
   </g>
  </g>
 </g>
</svg>